<svg width="72.000000" height="72.000000" viewBox="0 0 72 72" fill="none" xmlns="http://www.w3.org/2000/svg" xmlns:xlink="http://www.w3.org/1999/xlink">
	<desc>
			Created with Pixso.
	</desc>
	<defs>
		<clipPath id="clip1400_855">
			<rect id="person-running-svgrepo-com 1" rx="-0.500000" width="71.000000" height="71.000000" transform="translate(0.500000 0.500000)" fill="white" fill-opacity="0"/>
		</clipPath>
	</defs>
	<rect id="person-running-svgrepo-com 1" rx="-0.500000" width="71.000000" height="71.000000" transform="translate(0.500000 0.500000)" fill="#FFFFFF" fill-opacity="0"/>
	<g clip-path="url(#clip1400_855)">
		<path id="Vector" d="M37.91 20.35C37.91 20.35 38.54 22.78 35.84 23.41C33.48 23.97 32.98 21.58 32.98 21.58C32.98 21.58 32.46 19.18 31.38 18.94C30.97 18.85 30.88 18.95 29.7 18.78C27.69 18.47 27.16 17.5 26.99 16.62C26.94 16.35 26.92 16.08 26.9 15.85C26.87 15.53 26.84 15.27 26.73 15.13C26.64 15.01 25.39 14.53 25.56 13.93C25.79 13.13 27.26 12.49 27.2 11.75C27.2 11.56 27.08 10.94 27.06 10.85C26.94 10.14 26.98 9.15 27.21 8.17C27.83 5.47 29.59 3.43 32.61 3.15C35.31 2.9 38.41 4.91 39.67 7.31C40.48 8.85 39.31 12.83 37.92 14.94C36.12 17.68 37.91 20.35 37.91 20.35Z" fill="#FFD3B6" fill-opacity="1.000000" fill-rule="nonzero"/>
		<path id="Vector" d="M28.39 16.32C27.96 16.59 27.48 16.67 27 16.62C26.94 16.35 26.92 16.08 26.9 15.85C27.28 15.93 27.77 15.91 28.05 15.81C28.58 15.63 28.86 16.03 28.39 16.32Z" fill="#795548" fill-opacity="1.000000" fill-rule="nonzero"/>
		<path id="Vector" d="M29.38 11.32C29.73 11.34 30 11.79 29.98 12.34C29.96 12.88 29.66 13.32 29.3 13.3C28.95 13.29 28.68 12.84 28.7 12.29C28.72 11.74 29.02 11.31 29.38 11.32Z" fill="#404040" fill-opacity="1.000000" fill-rule="evenodd"/>
		<path id="Vector" d="M28.99 10.94C28.37 11.14 28.2 10.73 28.41 10.39C28.55 10.14 28.92 9.92 29.66 10.04C30.35 10.15 30.65 10.54 30.84 10.78C31.03 11.01 31.02 11.26 30.87 11.28C30.65 11.32 29.75 10.69 28.99 10.94Z" fill="#6D4C41" fill-opacity="1.000000" fill-rule="nonzero"/>
		<path id="Vector" d="M55.6 46.48L45.16 48.57L42.25 38.52L35.26 43.2L40.35 53.44L40.38 53.42C40.8 54.18 41.51 54.74 42.34 55C42.59 55.08 42.85 55.12 43.11 55.14L43.11 55.15L43.19 55.14C43.5 55.16 43.81 55.14 44.11 55.08L57 50.18L55.6 46.48Z" fill="#C29B00" fill-opacity="1.000000" fill-rule="nonzero"/>
		<path id="Vector" d="M57.84 44.34C57.66 44.03 57.27 43.94 56.97 44.12L55.64 44.92C54.73 45.46 54.24 46.99 54.24 46.99L56.22 50.32L59 52.72C59.71 53.28 60.69 53.34 61.48 52.89L62.08 52.53C62.34 52.38 62.43 52.03 62.28 51.77L57.84 44.34Z" fill="#5AED4F" fill-opacity="1.000000" fill-rule="nonzero"/>
		<path id="Vector" d="M25.23 64.01L31.65 51.75C31.65 51.75 39.64 45.13 40.34 44.66C42.94 42.92 43.46 40.5 43.2 38.73C43 37.37 42.09 35.55 42.09 35.55L31.6 38.68L32.1 40.6C32.1 40.6 28.89 44.75 28.14 45.62C27.39 46.49 26.11 47.7 25.11 51.11C24.06 54.71 21.42 63.39 21.42 63.39L25.23 64.01Z" fill="#FFCC00" fill-opacity="1.000000" fill-rule="nonzero"/>
		<path id="Vector" d="M25.22 67.83C25.57 67.88 25.9 67.65 25.95 67.3L26.2 65.77C26.38 64.73 25.52 63.37 25.52 63.37L21.7 62.74L18.07 63.3C17.18 63.5 16.5 64.2 16.35 65.1L16.23 65.79C16.18 66.09 16.38 66.38 16.68 66.43L25.22 67.83Z" fill="#5AED4F" fill-opacity="1.000000" fill-rule="nonzero"/>
		<path id="Vector" d="M28.15 27.57L23.11 23.73L20.66 26.35L25.75 31.28L25.75 31.28C26.75 32.32 29.08 33.03 31.02 31.26C32.87 29.58 35.15 25.99 35.15 25.99L31.2 22.83L28.15 27.57Z" fill="#FFD3B6" fill-opacity="1.000000" fill-rule="nonzero"/>
		<path id="Vector" d="M28.27 25.27C29.72 29.32 33.26 29.44 33.26 29.44L36.09 24.6C36.45 23.98 36.55 23.23 36.37 22.53C36.18 21.83 35.73 21.24 35.11 20.87L34.64 20.59C33.34 19.83 32.24 20.21 30.49 22.76C28.92 25.06 28.27 25.27 28.27 25.27Z" fill="#915959" fill-opacity="1.000000" fill-rule="nonzero"/>
		<path id="Vector" d="M31.6 38.67C30.21 33.14 29.95 29.25 30.26 26.13C30.67 22.21 32.54 19.86 34.65 19.12C37.24 18.2 39.04 19.53 39.77 21.88C40.26 23.48 40.17 24.71 40.13 25.48C40.13 25.48 39.77 29.68 43.11 34.94C43.11 34.94 42.79 37.22 37.46 38.48C35.08 39.03 31.6 38.67 31.6 38.67Z" fill="#915959" fill-opacity="1.000000" fill-rule="nonzero"/>
		<path id="Vector" d="M40.19 33.53C40.19 33.53 37.75 32.31 37.72 32.3C37.65 32.26 37.57 32.24 37.49 32.23C37.4 32.22 37.32 32.23 37.24 32.25C37.16 32.28 37.09 32.31 37.02 32.37C36.96 32.42 36.91 32.48 36.87 32.56L36.34 33.54C36.26 33.7 36.25 33.88 36.31 34.04C36.03 34.21 35.34 34.63 35.19 34.92C35.02 35.25 35.21 35.59 35.39 35.67C35.6 35.76 35.7 36.05 35.64 36.27C35.57 36.5 35.57 36.73 35.68 36.91C35.79 37.1 35.92 37.17 36.18 37.22C36.3 37.24 36.43 37.4 36.43 37.53C36.43 37.72 36.43 38.05 36.52 38.17C36.72 38.43 37.03 38.35 37.19 38.53C37.25 38.61 37.26 38.93 37.39 39.04C37.77 39.4 39.02 38.74 39.02 38.74L41.39 36.54L40.19 33.53Z" fill="#FFD3B6" fill-opacity="1.000000" fill-rule="nonzero"/>
		<path id="Vector" d="M39.4 33.14L40.91 33.57L41.94 36.41C41.94 36.41 38.72 39.57 38.18 38.68C38 38.41 38.32 38.11 37.86 37.94C37.53 37.81 37.28 37.65 37.37 37.14C37.41 36.95 37.26 36.72 37.13 36.7C36.52 36.63 36.36 36.29 36.54 35.86C36.64 35.62 36.62 35.22 36.28 35.04C36.15 34.98 35.98 34.7 36.06 34.31C36.19 33.69 39.4 33.14 39.4 33.14Z" fill="#FFD3B6" fill-opacity="1.000000" fill-rule="nonzero"/>
		<path id="Vector" d="M41.47 36.76L47.03 33.01L47.03 33C47.7 32.34 47.94 31.88 48.07 31.32C48.5 29.58 47.36 28.36 47.36 28.36L42.22 22.61L39.04 25.89L43.57 30.41L40.19 33.53L41.47 36.76Z" fill="#FFD3B6" fill-opacity="1.000000" fill-rule="nonzero"/>
		<path id="Vector" d="M41.58 29.25C41.58 29.25 44.99 25.88 44.9 23.29C44.9 23.29 43.27 23.28 40.86 21.45C39.33 20.31 37.31 20.21 36.49 21.55C35.76 22.73 35.88 24.19 37.28 25.86C38.32 27.1 41.58 29.25 41.58 29.25Z" fill="#915959" fill-opacity="1.000000" fill-rule="nonzero"/>
		<path id="Vector" d="M20.41 24.4L20.39 24.41C20.15 24.72 19.73 24.8 19.46 24.59L18.37 23.77C18.1 23.56 18.07 23.15 18.32 22.84C18.56 22.54 18.97 22.46 19.24 22.66L20.34 23.49C20.62 23.7 20.66 24.1 20.41 24.4Z" fill="#FFD3B6" fill-opacity="1.000000" fill-rule="nonzero"/>
		<path id="Vector" d="M21.33 20.94C21.35 20.95 21.35 20.97 21.35 20.97C21.85 21.5 22.3 21.94 22.49 22.06C23 22.38 23.47 22.79 23.76 23.36C24.31 24.42 23.61 25.47 22.79 26.24C21.98 27.01 21.47 27.18 20.59 27.03C19.87 26.92 18.34 25.3 18.34 25.3C18.19 25.12 18.01 24.93 17.83 24.75C17.76 24.68 17.69 24.61 17.62 24.54L17.61 24.53C17.4 24.33 17.38 24.06 17.61 23.78C17.91 23.41 18.21 23.6 18.24 23.63L18.25 23.63C18.39 23.76 18.54 23.94 18.65 24.02C18.98 24.26 19.16 24.31 19.16 24.31L20.7 22.35L20.18 21.65C20.18 21.65 20.17 21.64 20.16 21.62C20.1 21.53 19.88 21.21 20.3 20.84C20.76 20.44 21.24 20.85 21.33 20.94Z" fill="#FFD3B6" fill-opacity="1.000000" fill-rule="nonzero"/>
		<path id="Vector" d="M21.28 23.6C21.01 23.88 20.59 23.93 20.34 23.7L19.17 22.66C18.92 22.44 18.93 22.02 19.2 21.74C19.47 21.45 19.89 21.4 20.14 21.63L21.31 22.67C21.56 22.9 21.54 23.31 21.28 23.6Z" fill="#FFD3B6" fill-opacity="1.000000" fill-rule="nonzero"/>
		<path id="Vector" d="M19.77 23.77C20.02 23.4 20.33 22.95 20.67 22.56C20.72 22.51 20.77 22.46 20.82 22.41C21.29 21.92 21.91 21.83 22.69 22.25C22.71 22.27 22.74 22.28 22.77 22.3C22.81 22.33 22.86 22.35 22.91 22.38L22.91 22.39C22.98 22.43 23.05 22.48 23.11 22.53C23.34 22.7 23.52 22.91 23.63 23.11C24.05 23.79 23.93 24.44 23.93 24.44C23.93 24.44 23.43 25.94 22.7 25.68C21.97 25.41 21.6 24.37 21.6 24.37L21.79 23.62C21.57 23.6 21.38 23.69 21.12 23.99C21.03 24.08 20.94 24.2 20.82 24.34C20.81 24.36 20.67 24.53 20.66 24.54C20.49 24.73 20.3 24.82 20.07 24.8C19.77 24.78 19.52 24.5 19.38 24.39C19.49 24.25 19.63 23.96 19.77 23.77Z" fill="#FFD3B6" fill-opacity="1.000000" fill-rule="nonzero"/>
		<path id="Vector" d="M19.44 25.5L20.35 24.76L20.83 24.21L21.46 23.65L21.68 23.75L21.54 24.47L22.02 25.18L22.32 25.43L20.77 26.53L19.44 25.5Z" fill="#FFD3B6" fill-opacity="1.000000" fill-rule="nonzero"/>
		<path id="Vector" d="M19.5 25.09C19.48 25.44 19.14 25.63 19.17 25.64C19.26 25.68 19.73 25.56 20.26 24.98C20.66 24.52 21.05 23.93 21.52 23.79C21.36 24.59 21.71 25.2 22.37 25.44C21.87 24.98 21.46 24.19 21.92 23.56C21.54 23.33 21.11 23.7 20.89 23.97C20.64 24.28 20.41 24.75 19.95 24.69C19.63 24.65 19.51 24.45 19.62 24.14C19.9 23.4 20.56 22.64 21.24 22.22C21.48 22.07 21.99 22.03 22.64 22.16C22.16 21.79 21.35 21.9 21.04 22.05C20.77 22.17 20.84 22.12 20.61 21.97C20.49 21.89 20.37 21.81 20.26 21.74C20.35 21.9 20.52 22.09 20.55 22.28C20.58 22.51 20.36 22.7 20.23 22.87C19.88 23.28 19.58 22.92 19.22 22.7C19.46 22.98 19.51 23.07 19.64 23.28C19.8 23.55 19.55 23.78 19.37 23.99C19.01 24.43 18.25 23.54 18.2 23.59C18.15 23.66 19.51 24.71 19.5 25.09Z" fill="#FFD3B6" fill-opacity="1.000000" fill-rule="nonzero"/>
		<path id="Vector" d="M41.39 7.21C40.68 5.33 39.18 4.74 38.69 4.59C38.47 3.91 37.35 1.33 33.1 1.95C32.07 2.1 31.31 2.58 30.63 3C30.35 3.18 30.07 3.35 29.82 3.47C29.61 3.56 29.25 3.65 28.95 3.54C28.27 3.3 28.51 2.27 28.51 2.27C28.51 2.27 26 2.72 27.03 5.16C26.19 5.51 25.79 6.4 25.62 7.23C25.4 8.37 25.94 9.47 27.02 9.97C27.02 9.97 26.84 8.13 29.49 8.29C30.31 8.34 31.16 8.48 31.93 8.19C32.23 8.08 32.5 7.9 32.79 7.76L32.89 7.76C33.89 8.32 32.52 10.66 33.61 12.07C33.82 12.34 34.02 12.25 34.02 12.25L34.48 11.6C34.83 11.16 35.14 10.77 35.56 10.87C36.81 11.17 36.54 13.39 35.05 13.86C34.9 13.9 35.2 16.39 38.27 16.45C39.86 16.48 40.44 15.17 40.44 15.17C40.44 15.17 39.76 15.33 39.63 14.75C39.56 14.45 39.84 14.05 40.34 13.62C41.79 12.37 41.31 10.9 41.1 10.44C41.32 10.02 41.94 8.67 41.39 7.21Z" fill="#001022" fill-opacity="1.000000" fill-rule="nonzero"/>
		<path id="Vector" d="M41.09 10.45C41.12 10.4 40.63 11.57 38.61 11.34C37.77 11.32 36.57 13.31 37.77 14.66C38.82 15.85 40.43 15.18 40.43 15.18C40.43 15.18 40.21 15.24 39.89 15.12C39.68 15.04 39.62 14.77 39.62 14.76C39.54 14.46 39.83 14.06 40.33 13.63C41.78 12.37 41.29 10.9 41.09 10.45Z" fill="#001022" fill-opacity="1.000000" fill-rule="nonzero"/>
		<path id="Vector" d="M41.39 7.21C41.02 6.22 40.32 5.38 39.38 4.88C39.25 4.81 38.91 4.64 38.68 4.6C38.79 5.04 38.77 5.5 38.57 5.97C38.57 5.99 38.34 6.7 37.72 7.26C38.15 7.89 38.36 8.64 38.56 9.38C38.73 10.03 38.9 10.74 38.61 11.34C38.99 11.32 39.61 11.44 40.3 11.15C40.96 10.87 41.31 10.12 41.49 9.45C41.67 8.71 41.66 7.93 41.39 7.21Z" fill="#001022" fill-opacity="1.000000" fill-rule="nonzero"/>
		<path id="Vector" d="M38.57 5.97C39.08 4.73 38.41 3.56 37.38 2.76C36.17 1.83 34.56 1.73 33.1 1.95C32.07 2.1 31.31 2.58 30.63 3C30.35 3.18 30.07 3.35 29.82 3.47C29.61 3.56 29.25 3.65 28.95 3.54C28.27 3.3 28.51 2.27 28.51 2.27C28.51 2.27 26 2.72 27.03 5.16C26.19 5.51 25.79 6.4 25.62 7.23C25.4 8.37 25.94 9.47 27.02 9.97C27.02 9.97 26.84 8.13 29.49 8.29C30.31 8.34 31.16 8.48 31.93 8.19C32.61 7.93 32.85 7.57 33.6 7.63C34.42 7.69 35.5 8.02 36.34 7.9C38.04 7.67 38.56 6 38.57 5.97Z" fill="#001022" fill-opacity="1.000000" fill-rule="nonzero"/>
		<path id="Vector" d="M37.77 14.66C37.23 14.07 37.1 13.11 36.26 12.58C36.09 13.14 35.68 13.66 35.04 13.86C34.9 13.9 35.2 16.39 38.27 16.45C39.85 16.48 40.44 15.17 40.44 15.17C40.44 15.17 38.85 15.85 37.77 14.66Z" fill="#001022" fill-opacity="1.000000" fill-rule="nonzero"/>
	</g>
</svg>
